<svg width="77" height="77" xmlns="http://www.w3.org/2000/svg" xmlns:xlink="http://www.w3.org/1999/xlink" overflow="hidden"><defs><clipPath id="clip0"><rect x="18" y="18" width="77" height="77"/></clipPath></defs><g clip-path="url(#clip0)" transform="translate(-18 -18)"><path d="M19.5001 34.647C19.5001 26.2816 26.2816 19.5001 34.647 19.5001L79.3531 19.5001C87.7185 19.5001 94.5001 26.2816 94.5001 34.647L94.5001 79.3531C94.5001 87.7185 87.7185 94.5001 79.3531 94.5001L34.647 94.5001C26.2816 94.5001 19.5001 87.7185 19.5001 79.3531Z" stroke="#000000" stroke-width="1.33333" stroke-miterlimit="8" fill="#4472C4" fill-rule="evenodd"/><path d="M57.0001 29.5001 57.0001 36.1182C70.5311 36.1182 81.5001 46.9488 81.5001 60.3091 81.5001 73.6695 70.5311 84.5001 57.0001 84.5001 43.469 84.5001 32.5001 73.6695 32.5001 60.3091 32.5001 56.9691 33.1856 53.7871 34.4254 50.8929L36.2443 47.5842 43.0977 51.7859 41.8795 54.0021C41.0491 55.9407 40.5899 58.072 40.5899 60.3091 40.5899 69.2579 47.937 76.5123 57.0001 76.5123 66.0631 76.5123 73.4102 69.2579 73.4102 60.3091 73.4102 51.3604 66.0631 44.106 57.0001 44.106L57.0001 51.6825 46.4872 40.5912Z" stroke="#002060" stroke-width="0.666667" stroke-miterlimit="8" fill="#FFFFFF" fill-rule="evenodd"/></g></svg>