<svg width="77" height="77" xmlns="http://www.w3.org/2000/svg" xmlns:xlink="http://www.w3.org/1999/xlink" overflow="hidden"><defs><clipPath id="clip0"><rect x="18" y="18" width="77" height="77"/></clipPath></defs><g clip-path="url(#clip0)" transform="translate(-18 -18)"><path d="M19.5001 34.647C19.5001 26.2816 26.2816 19.5001 34.647 19.5001L79.3531 19.5001C87.7185 19.5001 94.5001 26.2816 94.5001 34.647L94.5001 79.3531C94.5001 87.7185 87.7185 94.5001 79.3531 94.5001L34.647 94.5001C26.2816 94.5001 19.5001 87.7185 19.5001 79.3531Z" stroke="#000000" stroke-width="1.33333" stroke-miterlimit="8" fill="#4472C4" fill-rule="evenodd"/><rect x="33" y="46" width="14" height="35"/><rect x="47" y="46" width="10" height="35" fill="#FF0000"/><rect x="57" y="46" width="10" height="35" fill="#00B050"/><rect x="67" y="46" width="14" height="35" fill="#FFFF00"/><path d="M56.5009 53.731C44.6576 53.731 35.0567 59.5152 35.0567 66.6503 35.0567 73.7855 44.6576 79.5696 56.5009 79.5696 68.3442 79.5696 77.9451 73.7855 77.9451 66.6503 77.9451 59.5152 68.3442 53.731 56.5009 53.731ZM30 30 83 30 83 83 30 83Z" fill="#4472C4" fill-rule="evenodd"/><path d="M47.5001 41.5001 57.5001 31.5001 67.5001 41.5001 62.5001 41.5001 62.5001 63.5001 52.5001 63.5001 52.5001 41.5001Z" stroke="#002060" stroke-width="0.666667" stroke-miterlimit="8" fill="#FFFFFF" fill-rule="evenodd"/></g></svg>