<svg width="77" height="77" xmlns="http://www.w3.org/2000/svg" xmlns:xlink="http://www.w3.org/1999/xlink" overflow="hidden"><defs><clipPath id="clip0"><rect x="18" y="18" width="77" height="77"/></clipPath></defs><g clip-path="url(#clip0)" transform="translate(-18 -18)"><path d="M19.5001 34.647C19.5001 26.2816 26.2816 19.5001 34.647 19.5001L79.3531 19.5001C87.7185 19.5001 94.5001 26.2816 94.5001 34.647L94.5001 79.3531C94.5001 87.7185 87.7185 94.5001 79.3531 94.5001L34.647 94.5001C26.2816 94.5001 19.5001 87.7185 19.5001 79.3531Z" stroke="#000000" stroke-width="1.33333" stroke-miterlimit="8" fill="#4472C4" fill-rule="evenodd"/><path d="M35 67C35 59.8203 44.6259 54 56.5 54 68.3741 54 78 59.8203 78 67 78 74.1797 68.3741 80 56.5 80 44.6259 80 35 74.1797 35 67Z" fill="#FF0000" fill-rule="evenodd"/><path d="M67.5001 53.5001 57.5001 63.5001 47.5001 53.5001 52.5001 53.5001 52.5001 31.5001 62.5001 31.5001 62.5001 53.5001Z" stroke="#002060" stroke-width="0.666667" stroke-miterlimit="8" fill="#FFFFFF" fill-rule="evenodd"/></g></svg>