<svg width="77" height="77" xmlns="http://www.w3.org/2000/svg" xmlns:xlink="http://www.w3.org/1999/xlink" overflow="hidden"><defs><clipPath id="clip0"><rect x="18" y="18" width="77" height="77"/></clipPath></defs><g clip-path="url(#clip0)" transform="translate(-18 -18)"><path d="M0 15.147C-2.38713e-15 6.78153 6.78153-4.77425e-15 15.147-4.77425e-15L59.853 0C68.2185-4.77425e-15 75 6.78153 75 15.147L75 59.853C75 68.2185 68.2185 75 59.853 75L15.147 75C6.78153 75-2.38713e-15 68.2185 0 59.853Z" stroke="#000000" stroke-width="1.33333" stroke-miterlimit="8" fill="#4472C4" fill-rule="evenodd" transform="matrix(-1 0 0 1 94.5001 19.5001)"/><path d="M24.5 0 24.5 6.61815C38.031 6.61815 49 17.4487 49 30.8091 49 44.1694 38.031 55 24.5 55 10.969 55 0 44.1694 0 30.8091 0 27.469 0.685572 24.2871 1.9253 21.3929L3.74422 18.0841 10.5977 22.2859 9.37944 24.5021C8.54902 26.4406 8.08982 28.5719 8.08982 30.8091 8.08982 39.7578 15.4369 47.0122 24.5 47.0122 33.5631 47.0122 40.9102 39.7578 40.9102 30.8091 40.9102 21.8603 33.5631 14.6059 24.5 14.6059L24.5 22.1824 13.9872 11.0912Z" stroke="#002060" stroke-width="0.666667" stroke-miterlimit="8" fill="#FFFFFF" fill-rule="evenodd" transform="matrix(-1 0 0 1 81.5001 29.5001)"/></g></svg>